<svg width="155" height="189" viewBox="0 0 155 189" fill="none" xmlns="http://www.w3.org/2000/svg">
<g filter="url(#filter0_d_1061_1043)">
<path fill-rule="evenodd" clip-rule="evenodd" d="M84.2538 38.907C83.7608 38.8727 83.3805 38.4465 83.4357 37.9553C83.9737 33.1644 86.2823 25.8465 92.745 22.4471C97.7802 19.7985 101.084 18.8956 103.325 18.283C105.359 17.7269 106.519 17.41 107.305 16.2435C108.955 13.7921 106.554 11.1905 100.851 13.0916C95.1474 14.9927 85.0436 18.4607 80.9369 27.4284C79.1245 31.3862 78.0958 35.1009 77.5471 38.0207C77.4685 38.4386 77.1071 38.7473 76.6822 38.7608C41.5166 39.8737 14.5496 66.5054 14.4707 101.845C14.4693 102.495 15.1513 102.919 15.7374 102.638C33.4034 94.1793 55.597 89.1425 79.6991 89.1425C103.737 89.1425 125.877 94.1527 143.521 102.571C144.127 102.861 144.826 102.396 144.787 101.725C142.691 65.3816 117.437 41.2215 84.2538 38.907Z" fill="#FBE56A"/>
<path d="M104.464 9.01952C104.4 7.67729 106.148 7.10814 106.886 8.23126C107.359 8.9523 108.386 9.03254 108.966 8.39384C109.869 7.39897 111.508 8.23284 111.236 9.54871C111.061 10.3935 111.73 11.1762 112.592 11.1347C113.934 11.0699 114.503 12.8184 113.38 13.5562C112.659 14.0298 112.579 15.0566 113.217 15.6365C114.212 16.5398 113.379 18.1786 112.063 17.9061C111.218 17.7312 110.435 18.4005 110.477 19.2622C110.541 20.6044 108.793 21.1735 108.055 20.0504C107.582 19.3294 106.555 19.2491 105.975 19.8878C105.072 20.8827 103.433 20.0489 103.705 18.733C103.88 17.8882 103.211 17.1055 102.349 17.147C101.007 17.2117 100.438 15.4633 101.561 14.7255C102.282 14.2519 102.362 13.2251 101.723 12.6452C100.729 11.7419 101.562 10.1031 102.878 10.3756C103.723 10.5505 104.506 9.88122 104.464 9.01952Z" fill="#FBE56A"/>
<ellipse cx="75.1561" cy="61.4828" rx="2.89767" ry="3.64042" transform="rotate(7.85592 75.1561 61.4828)" fill="#393939"/>
<ellipse opacity="0.2" cx="61.2546" cy="70.4378" rx="11.0065" ry="11.0042" fill="#8D8D8D"/>
<ellipse cx="84.9488" cy="61.483" rx="2.89767" ry="3.64042" transform="rotate(-10.7713 84.9488 61.483)" fill="#393939"/>
<ellipse opacity="0.2" cx="98.8542" cy="70.4378" rx="11.0065" ry="11.0042" fill="#8D8D8D"/>
<circle cx="28.4218" cy="117.197" r="13.9491" fill="#FBE56A"/>
<circle cx="62.5195" cy="109.645" r="13.9491" fill="#FBE56A"/>
<circle cx="96.621" cy="109.645" r="13.9491" fill="#FBE56A"/>
<circle cx="130.721" cy="117.767" r="13.9491" fill="#FBE56A"/>
<path fill-rule="evenodd" clip-rule="evenodd" d="M70.0812 168.146C70.0399 168.823 69.4956 169.36 68.8183 169.392L12.6103 172.08C12.0633 172.106 11.5527 171.795 11.3501 171.287C10.3261 168.716 9.76367 165.915 9.76367 162.985C9.76367 150.463 20.0342 140.311 32.7034 140.311C36.3937 140.311 39.8805 141.173 42.9692 142.703C43.7584 143.094 44.7365 142.697 44.9646 141.846L47.1014 133.876C47.2473 133.332 47.7207 132.939 48.2825 132.895L70.8286 131.152C71.633 131.089 72.3068 131.752 72.2575 132.558L70.0812 168.146Z" fill="#FBE56A"/>
<path fill-rule="evenodd" clip-rule="evenodd" d="M84.4613 173.866C84.573 174.535 85.1703 175.012 85.8473 174.974L142.029 171.785C142.576 171.754 143.051 171.392 143.2 170.865C143.95 168.201 144.217 165.357 143.912 162.443C142.606 149.989 131.333 140.964 118.733 142.285C115.063 142.67 111.685 143.89 108.772 145.734C108.028 146.206 107.014 145.913 106.698 145.091L103.742 137.387C103.54 136.861 103.029 136.519 102.465 136.534L79.8602 137.151C79.0538 137.173 78.4528 137.903 78.5857 138.699L84.4613 173.866Z" fill="#FBE56A"/>
<path d="M74.3287 73.0414C74.3287 71.5358 74.7652 70.3902 75.638 69.6046C76.5326 68.7972 77.8637 68.3936 79.6312 68.3936C81.3987 68.3936 82.7189 68.8082 83.5917 69.6373C84.4864 70.4665 84.9337 71.6012 84.9337 73.0414C84.9337 74.3288 84.5191 75.4526 83.6899 76.4127H84.05C85.0755 76.4127 86.0029 76.2818 86.8321 76.02C87.6613 75.7581 88.3378 75.3653 88.8615 74.8416C89.0579 74.6452 89.2652 74.5034 89.4834 74.4161C89.7016 74.307 89.9634 74.2525 90.2689 74.2525C90.8363 74.2525 91.2509 74.4161 91.5127 74.7434C91.7964 75.0708 91.9382 75.4744 91.9382 75.9545C91.9382 76.6528 91.6873 77.231 91.1854 77.6893C90.7053 78.1693 90.0944 78.5512 89.3524 78.8349C88.6324 79.1404 87.8359 79.3586 86.963 79.4895C86.112 79.6204 85.3265 79.6859 84.6064 79.6859C82.8389 79.6859 81.1805 79.4349 79.6312 78.9331C78.0601 79.4349 76.4017 79.6859 74.656 79.6859C73.936 79.6859 73.1395 79.6204 72.2667 79.4895C71.4156 79.3586 70.6192 79.1404 69.8773 78.8349C69.1572 78.5512 68.5462 78.1693 68.0443 77.6893C67.5642 77.231 67.3242 76.6528 67.3242 75.9545C67.3242 75.4744 67.4551 75.0708 67.717 74.7434C68.0007 74.4161 68.4262 74.2525 68.9935 74.2525C69.299 74.2525 69.5609 74.307 69.7791 74.4161C69.9973 74.5034 70.2046 74.6452 70.401 74.8416C70.9247 75.3653 71.6011 75.769 72.4303 76.0527C73.2595 76.3145 74.1869 76.4346 75.2125 76.4127H75.5725C75.1798 75.9545 74.8743 75.4417 74.656 74.8744C74.4378 74.307 74.3287 73.696 74.3287 73.0414ZM78.4202 73.1723C78.4202 73.6524 78.5293 74.0779 78.7475 74.4489C78.9657 74.798 79.2603 75.0926 79.6312 75.3326C80.0022 75.0926 80.2968 74.798 80.515 74.4489C80.7332 74.0779 80.8423 73.6524 80.8423 73.1723C80.8423 72.6486 80.7332 72.2777 80.515 72.0595C80.2968 71.8413 80.0022 71.7322 79.6312 71.7322C79.2603 71.7322 78.9657 71.8413 78.7475 72.0595C78.5293 72.2777 78.4202 72.6486 78.4202 73.1723Z" fill="#393939"/>
</g>
<defs>
<filter id="filter0_d_1061_1043" x="0.463672" y="2.33281" width="153.625" height="185.943" filterUnits="userSpaceOnUse" color-interpolation-filters="sRGB">
<feFlood flood-opacity="0" result="BackgroundImageFix"/>
<feColorMatrix in="SourceAlpha" type="matrix" values="0 0 0 0 0 0 0 0 0 0 0 0 0 0 0 0 0 0 127 0" result="hardAlpha"/>
<feOffset dy="4"/>
<feGaussianBlur stdDeviation="4.65"/>
<feComposite in2="hardAlpha" operator="out"/>
<feColorMatrix type="matrix" values="0 0 0 0 0.190607 0 0 0 0 0.186406 0 0 0 0 0.186406 0 0 0 0.25 0"/>
<feBlend mode="normal" in2="BackgroundImageFix" result="effect1_dropShadow_1061_1043"/>
<feBlend mode="normal" in="SourceGraphic" in2="effect1_dropShadow_1061_1043" result="shape"/>
</filter>
</defs>
</svg>
