<svg width="205" height="68" viewBox="0 0 205 68" fill="none" xmlns="http://www.w3.org/2000/svg">
<path d="M43.3468 11.884C43.5152 12.8384 43.4029 13.5682 43.0661 14.1295C42.7292 14.6909 42.224 15.14 41.5504 15.4768C42.7292 22.0449 43.2906 25.3008 44.4695 31.8689C44.6379 32.9355 44.4134 33.8898 43.7397 34.6758C43.0661 35.4617 41.9433 36.023 40.3153 36.3599C38.2944 36.7528 36.7787 36.5283 35.7682 35.6301C33.8034 36.6406 31.7825 37.4826 29.8177 38.2124C27.7967 38.9422 25.5513 39.5597 23.0251 40.1772C20.7796 40.7386 18.8148 41.0193 17.1868 40.9631C15.5588 40.9631 14.1554 40.6263 12.9765 40.0649C11.7976 39.5036 10.8994 38.7738 10.1697 37.8756C9.43988 36.9212 8.93465 35.8546 8.59782 34.6758C8.09259 33.0478 7.75576 31.1391 7.69963 29.1743C7.64349 27.1534 7.86804 25.2447 8.37327 23.336C7.19439 23.6729 6.18392 23.6729 5.34186 23.3922C4.44367 23.1115 3.82616 22.3817 3.48934 21.1467C3.15251 19.9117 3.26479 18.9012 3.8823 18.2276C4.49981 17.5539 5.45414 16.9925 6.68916 16.6557C19.32 13.1752 25.6635 11.7156 38.519 9.35787C39.754 9.13332 40.8206 9.18946 41.7188 9.52628C42.5608 9.86311 43.1222 10.7052 43.3468 11.9963V11.884ZM30.1545 50.6749C29.4247 47.6434 29.8738 45.1173 31.4457 43.0963C33.0175 41.0754 35.7682 39.6158 39.6417 38.886C43.5152 38.1001 46.6027 38.4369 48.8482 39.7842C51.0937 41.1315 52.3848 43.3209 52.8901 46.24C53.283 48.8785 52.7778 51.2924 51.3744 53.5379C51.6551 53.5379 51.8235 53.4817 52.1042 53.4256C54.2374 53.0888 56.146 52.5274 57.8302 51.6853C59.5143 50.8994 60.8054 49.8889 61.8159 48.7101C62.2089 48.261 62.6018 47.868 63.0509 47.6434C63.5 47.3628 64.0614 47.1944 64.6789 47.1382C65.9139 46.9698 66.8121 47.1944 67.4858 47.8119C68.1594 48.4294 68.5524 49.2153 68.6646 50.1696C68.8331 51.5731 68.4401 52.8642 67.5419 53.9308C66.6437 54.9974 65.4648 55.9518 64.0053 56.7377C62.5457 57.5236 60.9738 58.1972 59.2336 58.7025C57.4933 59.2077 55.8654 59.6007 54.4058 59.8814C50.7569 60.4989 47.2764 60.555 43.9081 60.2182C40.8767 61.8462 37.6208 63.0812 34.028 63.9232C32.5684 64.2601 30.9404 64.5407 29.0879 64.7092C27.2915 64.8776 25.5513 64.8776 23.9233 64.7092C22.2953 64.5407 20.8357 64.0916 19.5446 63.4741C18.2534 62.8566 17.4675 61.79 17.0745 60.4427C16.7939 59.4884 16.85 58.5902 17.243 57.8043C17.6359 57.0184 18.4218 56.4008 19.6007 56.1202C20.2182 55.9518 20.8357 55.8956 21.341 55.9518C21.8462 56.0079 22.3514 56.1763 22.8567 56.5131C24.204 57.2429 25.8319 57.692 27.6845 57.8043C29.537 57.9166 31.5579 57.692 33.635 57.1868C33.9157 57.1306 34.0841 57.0745 34.3648 57.0184C33.3543 56.2886 32.4561 55.3904 31.7264 54.3799C30.9966 53.3694 30.4913 52.1906 30.1545 50.8433V50.6749ZM23.7549 32.8794C25.6074 32.4303 27.3477 31.8689 28.9195 31.2514C30.4913 30.6339 32.1193 29.848 33.8034 28.9498C32.8491 24.4026 32.4 22.1572 31.4457 17.61C26.1688 18.6766 23.5865 19.2942 18.3657 20.5853C17.8605 22.2133 17.5236 23.8413 17.4675 25.5254C17.3552 27.2095 17.4675 28.6691 17.8043 29.9041C18.1411 31.1391 18.7587 32.0373 19.713 32.5987C20.6673 33.2162 22.0146 33.2723 23.6987 32.8794H23.7549ZM38.9681 49.0469C39.1926 50.0012 39.5856 50.7871 40.2031 51.4608C40.8206 52.0783 41.5504 52.5835 42.4486 52.9203C43.1222 52.3028 43.6274 51.5731 43.9643 50.731C44.3011 49.8889 44.3572 49.0469 44.1888 48.0364C43.9643 46.9698 43.6274 46.2962 43.0661 45.9032C42.5047 45.5664 41.8311 45.4541 41.0451 45.6225C40.2592 45.7909 39.6417 46.1277 39.2487 46.6891C38.8558 47.2505 38.7996 48.0364 39.0242 49.0469H38.9681ZM60.0195 17.2171C62.265 16.9364 63.4439 16.8241 65.6894 16.5434C66.9244 16.4312 67.9349 16.5434 68.7769 16.9925C69.619 17.3855 70.0681 18.2837 70.1803 19.5748C70.2926 20.866 70.0119 21.8203 69.2822 22.3817C68.5524 22.9431 67.6542 23.2799 66.4192 23.4483C64.1737 23.6729 63.1071 23.8413 60.8616 24.122C61.3107 27.827 61.5352 29.6795 62.0405 33.3285C62.1527 34.3951 61.872 35.2933 61.1984 36.0792C60.4686 36.8651 59.3459 37.3142 57.774 37.5387C56.2022 37.7633 54.9672 37.5949 54.069 37.0897C53.1708 36.5283 52.6655 35.7424 52.4971 34.6758C50.9253 24.7395 50.1955 19.7994 48.6237 9.86311C48.4552 8.7965 48.7359 7.84217 49.5219 7.05625C50.3078 6.27033 51.5428 5.70895 53.283 5.48441C55.0233 5.25986 56.3706 5.37213 57.3249 5.9335C58.2793 6.49487 58.8406 7.2808 58.9529 8.3474C59.402 11.884 59.6265 13.6804 60.0756 17.2171H60.0195Z" fill="#393939"/>
<path d="M87.6404 23.5594C84.3283 23.7279 81.8021 23.2788 79.9496 22.2683C78.1532 21.2017 77.1427 19.7421 76.9182 17.8334C76.8059 16.7107 76.8059 15.588 77.0305 14.4652C77.255 13.3425 77.7602 12.2197 78.49 11.097C77.4234 11.097 76.6375 10.8163 76.02 10.3672C75.4025 9.86197 75.0657 9.07604 74.9534 7.9533C74.8411 6.66214 75.1779 5.70781 75.9077 5.14644C76.6375 4.58507 77.648 4.24824 78.9391 4.19211C97.2399 2.90095 106.446 2.84481 124.803 3.91142C126.094 3.96756 127.105 4.30438 127.835 4.86575C128.621 5.42713 128.901 6.32532 128.845 7.61648C128.733 8.90763 128.284 9.80583 127.498 10.1988C126.712 10.6479 125.645 10.8163 124.41 10.7602C110.095 9.97424 102.91 9.9181 88.5386 10.5356C87.8649 11.3215 87.4158 12.1075 87.1913 12.8934C86.9667 13.6793 86.8545 14.3529 86.9106 14.9705C86.9106 15.5318 87.1352 15.9809 87.5281 16.2616C87.9211 16.5423 88.6509 16.6546 89.7736 16.5984C92.8612 16.4862 95.8364 16.3739 98.531 16.2055C101.282 16.0932 103.92 15.9248 106.559 15.7002C109.197 15.5318 111.892 15.3073 114.642 15.0827C117.393 14.8582 120.368 14.6336 123.512 14.4091C124.186 14.4091 124.859 14.4091 125.533 14.4091C126.207 14.5214 126.768 14.6898 127.329 14.9705C127.835 15.2511 128.284 15.6441 128.564 16.0371C128.845 16.4862 129.014 17.0475 128.957 17.7212C128.901 18.5071 128.564 19.293 128.059 19.9667C127.498 20.6403 126.656 21.0333 125.477 21.1455C122.221 21.4262 119.133 21.7069 116.27 21.8753C113.351 22.0437 110.488 22.2683 107.625 22.4367C107.625 23.8401 107.625 24.5138 107.625 25.9172C115.821 25.9733 119.919 26.1418 128.115 26.7031C129.294 26.7593 130.249 27.0961 130.978 27.6575C131.652 28.2188 131.989 29.117 131.877 30.4082C131.764 31.6993 131.315 32.5975 130.585 32.9905C129.799 33.4396 128.845 33.608 127.666 33.4957C107.794 32.0923 97.7451 32.1484 77.8725 33.7203C76.6936 33.8326 75.7393 33.6641 74.9534 33.215C74.1675 32.7659 73.7184 31.9239 73.6061 30.6327C73.4938 29.3416 73.7745 28.3872 74.4481 27.8259C75.1218 27.2645 76.0761 26.9277 77.255 26.8154C85.451 26.1418 89.5491 25.9733 97.7451 25.8049C97.7451 24.5699 97.7451 24.0085 97.6889 22.7735C96.061 22.8858 94.433 22.9981 92.805 23.0542C91.177 23.0542 89.4368 23.1665 87.6965 23.2788L87.6404 23.5594ZM123.288 55.3893C122.277 55.3331 121.547 54.884 121.042 54.0981C120.537 53.3122 119.919 52.3578 119.246 51.2351C116.776 52.5262 113.856 53.5929 110.432 54.4349C107.008 55.3331 103.022 55.7822 98.4749 55.8383C95.0505 55.8945 92.0752 55.7822 89.6052 55.4454C87.1352 55.1086 85.1142 54.5472 83.4862 53.8174C81.8583 53.0876 80.6794 52.1333 79.8373 50.9544C78.9953 49.7755 78.5462 48.4844 78.3778 46.9687C78.2655 45.453 78.5462 44.0495 79.1637 42.7584C79.7812 41.4672 80.9601 40.3445 82.5319 39.3901C84.1037 38.4358 86.1808 37.5938 88.7631 37.0324C91.3454 36.4149 94.4891 36.078 98.138 36.0219C103.078 35.9096 107.345 36.471 110.937 37.5376C114.53 38.6042 117.505 39.9515 119.863 41.5234C120.649 40.5129 121.379 39.6708 121.94 39.0533C122.502 38.3797 123.344 38.099 124.41 38.1551C125.421 38.2113 126.319 38.5481 127.105 39.1656C127.891 39.7831 128.228 40.569 128.171 41.5795C128.171 42.3654 127.835 43.1513 127.386 44.1057C126.936 45.0039 126.263 45.9582 125.421 46.8564C126.151 47.923 126.656 48.9896 126.993 49.9439C127.329 50.8983 127.442 51.7965 127.386 52.5263C127.329 53.5367 126.88 54.3226 126.038 54.7717C125.252 55.277 124.354 55.4454 123.4 55.3893H123.288ZM98.3626 48.9896C102.236 48.9335 105.436 48.6528 107.906 48.0914C110.376 47.53 112.453 46.9125 114.081 46.0705C112.509 45.1161 110.488 44.3302 107.962 43.7127C105.436 43.0952 102.18 42.7584 98.2503 42.8145C96.7346 42.8145 95.3312 42.9268 93.9839 43.0952C92.6927 43.2636 91.5139 43.4882 90.5595 43.7127C89.6052 43.9934 88.8754 44.3302 88.3702 44.7793C87.8649 45.2284 87.5843 45.7336 87.6404 46.295C87.6404 46.8564 87.9772 47.3616 88.5386 47.6984C89.1 48.0353 89.8297 48.316 90.7841 48.5405C91.7384 48.7651 92.8612 48.8773 94.1523 48.9335C95.4435 48.9335 96.8469 48.9896 98.3065 48.9335L98.3626 48.9896Z" fill="#393939"/>
<path d="M158.147 53.536C162.021 54.2097 165.894 54.6588 169.768 54.9395C173.641 55.2201 177.571 55.4447 181.669 55.6692C182.286 55.6692 182.904 55.7815 183.465 56.0061C184.027 56.2306 184.532 56.5113 184.981 56.8481C185.43 57.1849 185.711 57.634 185.879 58.1393C186.048 58.6445 186.048 59.2059 185.879 59.8795C185.655 60.6655 185.262 61.3391 184.644 61.9005C184.027 62.4618 183.185 62.6864 182.062 62.6864C173.248 62.4057 164.21 61.5075 154.835 59.9357C152.871 59.5988 151.018 59.2059 149.334 58.7568C147.65 58.3077 146.19 57.6902 144.955 56.9043C143.72 56.1183 142.766 55.164 142.092 53.929C141.419 52.694 141.138 51.2344 141.25 49.4941C141.362 47.5293 141.755 45.7329 142.429 44.0488C143.103 42.4209 144.001 40.849 145.124 39.3333C145.741 38.4912 146.527 37.9299 147.369 37.6492C148.211 37.3685 149.109 37.2562 149.951 37.3685C151.13 37.5369 152.141 37.986 153.039 38.7719C153.937 39.5579 154.274 40.5122 154.106 41.5788C153.993 42.084 153.825 42.5893 153.544 42.9822C153.263 43.3752 152.927 43.8243 152.534 44.2734C152.141 44.7786 151.804 45.34 151.467 46.0136C151.13 46.6873 150.906 47.5855 150.737 48.6521C150.513 50.0555 151.018 51.1221 152.141 51.7958C153.263 52.4694 155.284 53.0308 158.204 53.536H158.147ZM192.56 28.7795C194.749 29.3409 195.872 29.6777 198.061 30.2391C199.24 30.5759 200.138 31.0811 200.756 31.7548C201.373 32.4284 201.485 33.4389 201.092 34.6739C200.756 35.9089 200.138 36.6949 199.24 36.9194C198.398 37.2001 197.387 37.144 196.208 36.8071C194.075 36.1896 192.952 35.9089 190.819 35.3476C189.584 40.007 189.023 42.3086 187.788 46.968C187.507 48.0346 186.89 48.7644 185.991 49.2135C185.037 49.6626 183.802 49.7187 182.286 49.3257C180.771 48.9328 179.648 48.3714 179.03 47.5293C178.413 46.6873 178.245 45.7329 178.469 44.7225C181.22 32.7091 182.623 26.7024 185.374 14.6329C185.599 13.5663 186.216 12.8365 187.226 12.3874C188.237 11.9383 189.584 11.8822 191.325 12.3313C193.065 12.7243 194.244 13.3979 194.917 14.2961C195.591 15.1943 195.815 16.1486 195.535 17.1591C194.3 21.8185 193.738 24.1201 192.503 28.7795H192.56ZM140.633 29.3409C139.847 26.0849 141.98 24.0078 144.394 23.6149C151.243 22.6044 156.8 19.4607 159.158 11.1524C159.382 10.2542 159.551 9.80513 159.775 8.90694C160.224 7.3351 162.751 6.15621 166.007 7.11055C169.038 8.00874 171.396 10.2542 170.778 12.1629C170.441 13.1734 170.329 13.6225 169.992 14.6329C166.961 24.1763 158.428 31.418 146.752 32.8775C144.562 33.1021 141.25 31.8671 140.633 29.2847V29.3409ZM173.248 28.1059C175.101 30.632 173.136 33.5512 171.059 34.4494C168.87 35.4037 165.726 34.3371 164.491 32.653C162.695 30.2952 161.796 29.1163 159.944 26.7586C158.54 24.7938 159.439 21.7624 161.74 20.5835C164.042 19.4046 167.41 20.3589 168.813 22.3237C170.61 24.6254 171.452 25.8042 173.192 28.1059H173.248Z" fill="#393939"/>
<path d="M38.252 7.8916C39.5834 7.64952 40.8563 7.67021 42.0127 8.0498L42.2422 8.13086L42.2568 8.13672L42.2725 8.14258C43.7444 8.73145 44.504 10.1073 44.793 11.626L44.8145 11.625C45.025 12.8179 44.9177 13.9399 44.3438 14.8965C44.0391 15.4042 43.6483 15.8336 43.1914 16.1934C43.6942 19.0004 44.0868 21.2073 44.4775 23.4131L45.9365 31.6055L45.9395 31.6211L45.9414 31.6367C46.1682 33.0733 45.8669 34.4837 44.8711 35.6455C44.3985 36.1968 43.8051 36.6346 43.1182 36.9834C45.6094 36.9301 47.802 37.4179 49.6152 38.5059C52.3177 40.1273 53.7981 42.7484 54.3584 45.9854L54.3643 46.0205C54.6512 47.9473 54.5096 49.7831 53.9482 51.5273C55.1218 51.2264 56.192 50.8386 57.1641 50.3525L57.1816 50.3428L57.2002 50.335C58.6966 49.6366 59.8155 48.7541 60.6846 47.7402L60.6943 47.7285C61.0832 47.2841 61.6121 46.7245 62.2998 46.3574C62.9616 45.9534 63.72 45.738 64.4775 45.6611L64.7617 45.6279C66.173 45.4884 67.4633 45.7689 68.4932 46.7129C69.4438 47.5844 69.9923 48.7042 70.1445 49.9922L70.1768 50.3311C70.2952 52.0195 69.7714 53.5965 68.6816 54.8906C67.6509 56.1147 66.3202 57.1838 64.7119 58.0498C63.1706 58.8798 61.5015 59.5961 59.6494 60.1338C57.8701 60.6504 56.197 61.0544 54.6875 61.3447L54.6543 61.3506C51.026 61.9646 47.5599 62.0423 44.2109 61.7422C41.1759 63.3287 37.9271 64.5399 34.3682 65.374L34.3633 65.376C32.843 65.7268 31.1487 66.0174 29.2256 66.1924L29.2266 66.1934C27.3428 66.3699 25.5039 66.3708 23.7695 66.1914C21.9595 66.0041 20.335 65.504 18.9014 64.8184C17.1658 63.9882 16.1345 62.5434 15.6436 60.8604V60.8594C15.2736 59.5984 15.3258 58.3064 15.9102 57.1377C16.4973 55.9635 17.5856 55.1411 18.9736 54.7441L19.2559 54.6699C20.0056 54.4709 20.7959 54.3918 21.5059 54.4707C22.2077 54.5487 22.9058 54.7797 23.583 55.21C24.7102 55.8171 26.1149 56.2158 27.7744 56.3164C28.8512 56.3817 30.009 56.3192 31.2217 56.1406C30.9748 55.8544 30.7394 55.5587 30.5186 55.2529C29.655 54.0573 29.0813 52.6942 28.709 51.2051L28.6641 51.0264V50.834C27.9131 47.5319 28.4008 44.5844 30.2695 42.1816C31.8081 40.2034 34.1991 38.7863 37.252 37.917C36.6828 37.8112 36.1439 37.631 35.6465 37.3564C33.8717 38.2245 32.0753 38.9637 30.3369 39.6094L30.3242 39.6143C28.2294 40.3707 25.924 41.0029 23.3789 41.625C21.0677 42.2023 18.9553 42.5158 17.1357 42.4531V42.4521C15.3187 42.4451 13.7124 42.0656 12.3359 41.4102C10.9555 40.7528 9.88107 39.8842 9.0127 38.8154L8.99902 38.7988L8.98535 38.7812C8.12734 37.6592 7.54595 36.4182 7.16504 35.085V35.084C6.62564 33.3348 6.26961 31.3046 6.20996 29.2168V29.2158C6.17064 27.8001 6.262 26.4327 6.48047 25.083C5.93228 25.0673 5.40319 24.9791 4.89746 24.8135V24.8145C4.89512 24.8137 4.89296 24.8123 4.89062 24.8115C4.88405 24.8094 4.87668 24.8079 4.87012 24.8057V24.8047C3.35433 24.3195 2.47262 23.082 2.05176 21.5391C1.6524 20.0747 1.66867 18.4369 2.7832 17.2207C3.63183 16.2949 4.85479 15.6116 6.29297 15.2188C18.965 11.7269 25.3511 10.2573 38.25 7.8916H38.252ZM42.249 47.1533C42.051 47.0489 41.7797 46.9896 41.3574 47.0801C40.8074 47.1979 40.58 47.3864 40.4697 47.5439C40.4332 47.5962 40.2893 47.8679 40.4795 48.7236L40.6172 49.3447C40.7825 49.7675 41.0005 50.1194 41.2822 50.4316C41.5308 50.6771 41.7983 50.8941 42.0908 51.082C42.2868 50.8025 42.4502 50.5023 42.5801 50.1777C42.7921 49.6477 42.8498 49.0983 42.7227 48.3125C42.5488 47.5033 42.3556 47.2466 42.249 47.1533ZM53.0928 4.00586C54.9283 3.76907 56.6899 3.83013 58.0811 4.64844C59.3786 5.41177 60.2552 6.57845 60.4316 8.15918L60.9932 12.5957C61.1113 13.5311 61.2297 14.4663 61.3672 15.5518C61.8294 15.4973 62.2578 15.4484 62.6846 15.3994C63.5403 15.3012 64.3903 15.2038 65.5049 15.0645L65.5293 15.0615L65.5547 15.0596C66.9067 14.9367 68.2225 15.0338 69.4062 15.6416C69.4122 15.6444 69.4189 15.6476 69.4248 15.6504C69.4425 15.6596 69.4609 15.6683 69.4785 15.6777H69.4775C70.9739 16.4152 71.5352 17.9529 71.665 19.4453C71.7975 20.9691 71.5011 22.5552 70.1904 23.5635C69.1966 24.3278 68.0284 24.7328 66.6201 24.9248L66.5938 24.9287L66.5674 24.9316C64.8862 25.0998 63.8921 25.2315 62.5205 25.4102C62.86 28.2018 63.0843 30.0016 63.5166 33.124L63.5205 33.1484L63.5225 33.1729C63.6767 34.6395 63.275 35.9464 62.3301 37.0488L62.291 37.0938C61.2221 38.2449 59.6964 38.7701 57.9844 39.0146C56.2258 39.2658 54.6232 39.1116 53.3379 38.3887L53.3086 38.3721L53.2793 38.3535C51.9992 37.5535 51.2582 36.3823 51.0254 34.9082C50.2391 29.9375 49.6633 26.2162 49.0879 22.4971C48.8002 20.6375 48.5121 18.7786 48.1982 16.7637L47.1514 10.0957C46.9123 8.58182 47.328 7.1417 48.4678 6.00195C49.5596 4.91023 51.1456 4.25711 53.0928 4.00586ZM30.2891 19.3682C26.2352 20.2035 23.7449 20.794 19.5576 21.8271C19.215 23.0869 18.9988 24.3229 18.957 25.5752L18.9561 25.5996L18.9551 25.625C18.8506 27.193 18.9604 28.4785 19.2422 29.5117C19.468 30.3397 19.817 30.8513 20.2686 31.1826L20.4688 31.3145L20.4961 31.3301L20.5225 31.3477C20.9645 31.6337 21.811 31.7893 23.3604 31.4277L23.5273 31.3887H23.5703C25.2925 30.9631 26.9108 30.4391 28.374 29.8643C29.5732 29.3931 30.8182 28.8121 32.1143 28.1484C31.7498 26.4051 31.4566 24.9924 31.165 23.5811C30.8931 22.265 30.6194 20.9505 30.2891 19.3682Z" fill="#393939" stroke="#FBE56A" stroke-width="2.98089"/>
<path d="M98.1152 34.5312C103.181 34.4171 107.601 34.992 111.361 36.1084C114.513 37.0441 117.242 38.2021 119.532 39.5576C119.83 39.1987 120.11 38.8687 120.37 38.5732L120.837 38.0508C121.789 36.9441 123.138 36.596 124.488 36.667H124.493C125.804 36.7399 126.996 37.1845 128.025 37.9932C129.191 38.9091 129.72 40.1439 129.662 41.5791L129.656 41.7979C129.6 42.8844 129.135 43.8879 128.734 44.7402L128.727 44.7568L128.719 44.7725C128.348 45.5149 127.853 46.2687 127.268 46.998C127.757 47.8469 128.127 48.6787 128.398 49.4482C128.791 50.5601 128.941 51.6541 128.873 52.6084C128.873 52.6131 128.872 52.6183 128.872 52.623C128.872 52.6289 128.873 52.6348 128.872 52.6406L128.871 52.6396C128.784 54.0549 128.119 55.3168 126.809 56.0469C125.731 56.7276 124.546 56.9331 123.399 56.8789V56.8799H123.246L123.205 56.877C121.714 56.7941 120.55 56.0888 119.788 54.9043C119.466 54.4039 119.093 53.8243 118.686 53.1719C116.383 54.2483 113.766 55.1477 110.81 55.876C107.234 56.8137 103.121 57.272 98.4932 57.3291L98.4922 57.3281C95.0329 57.3846 91.977 57.2727 89.4043 56.9219C86.8265 56.5704 84.6619 55.9778 82.877 55.1777C81.0405 54.3545 79.6394 53.2419 78.624 51.8203C77.6131 50.4048 77.0887 48.8625 76.8965 47.1328L76.8936 47.1064L76.8916 47.0791C76.7599 45.3008 77.0912 43.6377 77.8193 42.1152C78.6072 40.468 80.0479 39.155 81.7588 38.1162C83.492 37.064 85.7278 36.1672 88.4463 35.5762C90.8201 35.0113 93.6025 34.6789 96.7422 34.5664L98.1152 34.5312ZM98.2715 44.3047H98.25C96.8109 44.3047 95.4721 44.411 94.1729 44.5732C92.9553 44.7322 91.8447 44.9429 90.9473 45.1523C90.096 45.4056 89.621 45.6619 89.3604 45.8936C89.2078 46.0292 89.1476 46.1221 89.1279 46.1611C89.1271 46.1628 89.1257 46.1646 89.125 46.166L89.1309 46.2207V46.2725C89.1455 46.2947 89.1934 46.3526 89.3057 46.4199C89.6954 46.6538 90.2681 46.8882 91.125 47.0898C91.9443 47.2826 92.9577 47.3887 94.209 47.4434C95.5627 47.4448 96.842 47.4984 98.249 47.4443L98.8994 47.4189L98.9648 47.4844C102.507 47.4088 105.38 47.1367 107.575 46.6377C108.554 46.4153 109.449 46.1853 110.266 45.9443C109.466 45.6617 108.583 45.3983 107.608 45.1602C105.237 44.5805 102.113 44.2498 98.2715 44.3047ZM88.4072 15.041C88.4446 15.0519 88.5061 15.0689 88.5996 15.083C88.8381 15.119 89.1938 15.1346 89.6992 15.1094H89.7197C92.8099 14.997 95.7664 14.8848 98.4385 14.7178L98.4541 14.7168L98.4707 14.7158C101.199 14.6045 103.816 14.4376 106.433 14.2148L106.464 14.2129C109.086 14.0455 111.766 13.8226 114.521 13.5977C117.278 13.3726 120.259 13.1476 123.406 12.9229L123.459 12.9189H125.656L125.778 12.9385C126.47 13.0538 127.099 13.2276 127.727 13.5098L127.996 13.6377L128.025 13.6514L128.054 13.668C128.641 13.9944 129.194 14.4435 129.608 14.9502L129.777 15.1709L129.804 15.208L129.828 15.2471C130.268 15.9515 130.523 16.8249 130.443 17.8262L130.444 17.8271C130.364 18.9564 129.89 20.01 129.252 20.8613L129.229 20.8916L129.204 20.9209C128.32 21.9814 127.062 22.4914 125.618 22.6289L125.604 22.6309C122.361 22.9105 119.246 23.1934 116.357 23.3633H116.356C114.906 23.447 113.468 23.5443 112.028 23.6426C111.058 23.7088 110.087 23.7736 109.115 23.8359V24.4404C116.39 24.5074 120.501 24.6873 128.217 25.2158H128.216C129.542 25.2836 130.724 25.6522 131.694 26.334L131.887 26.4766L131.91 26.4941L131.933 26.5127C133.091 27.4779 133.502 28.9226 133.361 30.5371C133.232 32.0223 132.681 33.5333 131.324 34.2832L131.325 34.2842C131.317 34.2886 131.309 34.2925 131.301 34.2969C131.298 34.2985 131.295 34.3011 131.292 34.3027L131.291 34.3018C130.187 34.9223 128.928 35.1074 127.557 34.9814C107.762 33.5837 97.788 33.6401 77.9902 35.2061C76.6024 35.3348 75.3281 35.1455 74.2139 34.5088C72.8499 33.7293 72.2576 32.332 72.1211 30.7617C71.9889 29.2412 72.284 27.6891 73.4941 26.6807C74.4729 25.8651 75.7497 25.462 77.1133 25.332L77.1328 25.3301C79.4488 25.1397 81.4402 24.9905 83.2891 24.8691C81.7554 24.6367 80.403 24.2134 79.2363 23.5771L79.2119 23.5635L79.1885 23.5498C77.042 22.2753 75.7226 20.431 75.4375 18.0078L75.4365 17.9951L75.4355 17.9814C75.3137 16.7632 75.3072 15.4838 75.5693 14.1729C75.7059 13.4899 75.9249 12.8212 76.2119 12.168C75.8267 12.0103 75.4714 11.8107 75.1436 11.5723L75.1094 11.5479L75.0762 11.5205C74.0339 10.6677 73.6038 9.43246 73.4707 8.10156L73.4688 8.08203C73.3301 6.48713 73.728 4.94254 74.999 3.96484C76.0249 3.17574 77.3427 2.77697 78.834 2.70605C97.1986 1.41039 106.469 1.35353 124.89 2.42383L124.889 2.4248C126.368 2.4922 127.676 2.88203 128.7 3.65332H128.701C128.705 3.65601 128.708 3.65941 128.712 3.66211C128.722 3.66985 128.733 3.67675 128.743 3.68457H128.742C130.089 4.67301 130.399 6.18464 130.334 7.68164L130.333 7.71387L130.33 7.74512C130.201 9.22514 129.65 10.7429 128.236 11.4912L128.237 11.4932C127.106 12.1398 125.716 12.3114 124.343 12.249L124.328 12.248C110.289 11.4773 103.154 11.4117 89.2852 11.9961C88.9481 12.4688 88.7378 12.9046 88.624 13.3027C88.4198 14.0173 88.3627 14.4858 88.3945 14.8359L88.4014 14.9033V14.9707C88.4014 15.0018 88.4046 15.0247 88.4072 15.041Z" fill="#393939" stroke="#FBE56A" stroke-width="2.98089"/>
<path d="M149.734 35.8496L150.148 35.8916L150.162 35.8926C151.615 36.1001 152.896 36.6666 154.021 37.6504C155.288 38.7592 155.83 40.2183 155.578 41.8115L155.57 41.8574L155.561 41.9023C155.432 42.4813 155.209 43.2153 154.757 43.8486C154.472 44.2475 154.118 44.7184 153.7 45.2002C153.388 45.6036 153.104 46.0726 152.8 46.6807C152.567 47.1465 152.371 47.8632 152.21 48.8848L152.209 48.8877C152.134 49.3551 152.194 49.6682 152.291 49.8818C152.387 50.0925 152.565 50.3124 152.907 50.5176C153.765 51.0322 155.531 51.5608 158.458 52.0674L158.457 52.0762C162.257 52.735 166.063 53.1769 169.876 53.4531C173.734 53.7327 177.651 53.9553 181.747 54.1797C182.516 54.1888 183.294 54.3323 184.019 54.6221C184.692 54.8914 185.314 55.2343 185.875 55.6553V55.6562C186.613 56.2096 187.049 56.9353 187.293 57.668C187.574 58.5125 187.542 59.3747 187.325 60.2412L187.319 60.2646L187.312 60.2891C187.019 61.317 186.487 62.2385 185.646 63.0029C184.639 63.9186 183.362 64.1768 182.062 64.1768H182.038L182.015 64.1758C173.132 63.8929 164.027 62.9877 154.589 61.4053L154.583 61.4043C152.584 61.0615 150.686 60.6601 148.95 60.1973C147.146 59.7162 145.541 59.0436 144.155 58.1621C142.742 57.2628 141.597 56.1322 140.784 54.6426C139.949 53.1115 139.638 51.3606 139.763 49.4053C139.884 47.2915 140.308 45.3369 141.045 43.4951L141.049 43.4873L141.052 43.4785C141.685 41.9488 142.499 40.4732 143.49 39.0518L143.926 38.4463C144.716 37.3714 145.75 36.618 146.897 36.2354C147.791 35.9375 148.767 35.7847 149.734 35.8496ZM186.621 11.0254C188.048 10.3913 189.769 10.3902 191.697 10.8877H191.696C193.604 11.3253 195.151 12.1233 196.109 13.4014C197.015 14.6084 197.389 16.0269 196.975 17.54C196.358 19.8646 195.911 21.6018 195.462 23.3418C195.111 24.6999 194.758 26.0598 194.327 27.7012C194.814 27.8306 195.258 27.9514 195.7 28.0713C196.114 28.1835 196.526 28.2947 196.97 28.4131L198.432 28.7949L198.451 28.8008L198.471 28.8057C199.826 29.193 200.998 29.8134 201.854 30.748C202.963 31.9578 202.987 33.5831 202.529 35.0654L202.53 35.0664C202.135 36.5152 201.287 37.8863 199.71 38.332L199.711 38.333C198.472 38.746 197.127 38.6197 195.799 38.2402L195.794 38.2393C194.21 37.7807 193.195 37.5121 191.882 37.168C191.451 38.8092 191.099 40.1684 190.747 41.5303C190.298 43.2701 189.847 45.0134 189.229 47.3467C188.839 48.8265 187.941 49.9055 186.658 50.5469L186.643 50.5547L186.626 50.5625C185.253 51.2084 183.634 51.215 181.912 50.7686C180.302 50.351 178.757 49.6783 177.828 48.4111C176.937 47.1962 176.703 45.7957 177.014 44.3994L177.017 44.3896C179.769 32.3686 181.17 26.3727 183.921 14.3018C184.255 12.752 185.207 11.6538 186.621 11.0254ZM161.359 5.65039C162.783 5.16694 164.545 5.12931 166.426 5.68066L166.43 5.68164C168.147 6.19036 169.73 7.0925 170.827 8.21582C171.887 9.30048 172.754 10.8986 172.196 12.6221L172.192 12.6338C172.03 13.1214 171.921 13.4726 171.81 13.8359C171.698 14.1974 171.583 14.571 171.412 15.083L171.413 15.084C170.82 16.9508 170.028 18.7312 169.057 20.4043C169.404 20.7035 169.719 21.0376 169.988 21.4062C171.63 23.5102 172.498 24.7028 173.938 26.6152H174.004L174.45 27.2246C175.743 28.9874 175.69 30.932 174.987 32.498C174.314 33.9999 173.026 35.2223 171.65 35.8174L171.649 35.8164C170.146 36.4703 168.437 36.3945 166.996 35.9697C165.569 35.5491 164.167 34.7173 163.306 33.5557V33.5566C162.067 31.9305 161.257 30.8687 160.268 29.5947C156.49 32.0532 151.984 33.7255 146.937 34.3564L146.903 34.3604C145.502 34.5041 143.839 34.1846 142.424 33.46C141.021 32.7416 139.657 31.5106 139.199 29.6885L139.184 29.6904C138.693 27.6597 139.1 25.8621 140.124 24.5059C141.122 23.1847 142.621 22.3931 144.154 22.1436L144.165 22.1416L144.176 22.1406C147.446 21.6582 150.279 20.684 152.552 18.9385C154.805 17.2083 156.62 14.6339 157.724 10.7451C157.839 10.2883 157.941 9.93956 158.036 9.6123C158.134 9.27696 158.225 8.96425 158.329 8.5459L158.343 8.49707C158.745 7.08976 159.974 6.12092 161.359 5.65039Z" fill="#393939" stroke="#FBE56A" stroke-width="2.98089"/>
</svg>
