<svg width="767" height="256" viewBox="0 0 767 256" fill="none" xmlns="http://www.w3.org/2000/svg">
<path d="M161.82 44.9418C162.453 48.5296 162.031 51.2733 160.764 53.3838C159.498 55.4942 157.599 57.1826 155.066 58.4489C159.498 83.1416 161.609 95.3824 166.041 120.075C166.674 124.085 165.829 127.673 163.297 130.628C160.764 133.582 156.543 135.693 150.423 136.959C142.825 138.436 137.127 137.592 133.328 134.215C125.941 138.014 118.344 141.18 110.957 143.924C103.359 146.667 94.9171 148.989 85.4199 151.31C76.978 153.421 69.5913 154.476 63.4709 154.265C57.3504 154.265 52.0742 152.999 47.6422 150.888C43.2102 148.778 39.8334 146.034 37.0898 142.657C34.3461 139.07 32.4467 135.06 31.1804 130.628C29.281 124.507 28.0147 117.332 27.8036 109.945C27.5926 102.347 28.4368 95.1714 30.3362 87.9957C25.9042 89.262 22.1053 89.262 18.9396 88.2068C15.5628 87.1516 13.2413 84.4079 11.975 79.7648C10.7087 75.1218 11.1308 71.3229 13.4523 68.7903C15.7738 66.2577 19.3617 64.1472 24.0047 62.8809C71.4907 49.7959 95.3392 44.3087 143.669 35.4446C148.312 34.6004 152.322 34.8115 155.699 36.0778C158.865 37.344 160.975 40.5098 161.82 45.3639V44.9418ZM112.223 190.776C109.479 179.38 111.168 169.883 117.077 162.285C122.987 154.687 133.328 149.2 147.89 146.456C162.453 143.502 174.06 144.768 182.502 149.833C190.944 154.898 195.798 163.129 197.698 174.104C199.175 184.023 197.276 193.098 192 201.54C193.055 201.54 193.688 201.329 194.743 201.118C202.763 199.852 209.939 197.741 216.27 194.575C222.602 191.621 227.456 187.822 231.255 183.39C232.732 181.701 234.209 180.224 235.898 179.38C237.586 178.325 239.697 177.691 242.018 177.48C246.661 176.847 250.038 177.691 252.571 180.013C255.103 182.335 256.58 185.289 257.003 188.877C257.636 194.153 256.158 199.007 252.782 203.017C249.405 207.027 244.973 210.615 239.486 213.57C233.998 216.524 228.089 219.057 221.546 220.956C215.004 222.856 208.883 224.333 203.396 225.388C189.678 227.71 176.593 227.921 163.93 226.655C152.533 232.775 140.293 237.418 126.785 240.584C121.298 241.85 115.178 242.906 108.213 243.539C101.46 244.172 94.9171 244.172 88.7967 243.539C82.6763 242.906 77.189 241.217 72.3349 238.896C67.4808 236.574 64.5261 232.564 63.0488 227.499C61.9935 223.911 62.2046 220.534 63.6819 217.58C65.1593 214.625 68.1139 212.303 72.546 211.248C74.8675 210.615 77.189 210.404 79.0885 210.615C80.9879 210.826 82.8873 211.459 84.7868 212.726C89.852 215.469 95.9724 217.158 102.937 217.58C109.902 218.002 117.499 217.158 125.308 215.258C126.363 215.047 126.997 214.836 128.052 214.625C124.253 211.881 120.876 208.505 118.132 204.706C115.389 200.907 113.489 196.475 112.223 191.41V190.776ZM88.1636 123.874C95.1282 122.186 101.671 120.075 107.58 117.754C113.489 115.432 119.61 112.477 125.941 109.101C122.353 92.0057 120.665 83.5637 117.077 66.4688C97.2387 70.4787 87.5304 72.8002 67.9029 77.6544C66.0034 83.7748 64.7372 89.8952 64.5261 96.2266C64.104 102.558 64.5261 108.045 65.7924 112.688C67.0587 117.332 69.3802 120.708 72.9681 122.819C76.5559 125.14 81.6211 125.351 87.9525 123.874H88.1636ZM145.358 184.656C146.202 188.244 147.679 191.199 150.001 193.731C152.322 196.053 155.066 197.952 158.443 199.218C160.975 196.897 162.875 194.153 164.141 190.988C165.407 187.822 165.618 184.656 164.985 180.857C164.141 176.847 162.875 174.315 160.764 172.837C158.654 171.571 156.121 171.149 153.167 171.782C150.212 172.415 147.89 173.682 146.413 175.792C144.936 177.903 144.725 180.857 145.569 184.656H145.358ZM224.501 64.9914C232.943 63.9362 237.375 63.5141 245.817 62.4589C250.46 62.0368 254.259 62.4589 257.425 64.1472C260.59 65.6246 262.279 69.0014 262.701 73.8555C263.123 78.7096 262.068 82.2974 259.324 84.4079C256.58 86.5184 253.204 87.7847 248.561 88.4178C240.119 89.262 236.109 89.8952 227.667 90.9504C229.355 104.88 230.199 111.844 232.099 125.562C232.521 129.572 231.466 132.949 228.933 135.904C226.189 138.858 221.968 140.547 216.059 141.391C210.15 142.235 205.507 141.602 202.13 139.703C198.753 137.592 196.854 134.638 196.221 130.628C190.311 93.272 187.568 74.6997 181.658 37.3441C181.025 33.3341 182.08 29.7463 185.035 26.7916C187.99 23.8369 192.633 21.7264 199.175 20.8822C205.718 20.0381 210.783 20.4602 214.371 22.5706C217.959 24.6811 220.069 27.6358 220.491 31.6457C222.18 44.9418 223.024 51.6954 224.712 64.9914H224.501Z" fill="#393939"/>
<path d="M328.343 88.8357C315.891 89.4689 306.394 87.7805 299.429 83.9816C292.676 79.9717 288.877 74.4844 288.033 67.3087C287.61 63.0878 287.61 58.8668 288.455 54.6458C289.299 50.4248 291.198 46.2039 293.942 41.9829C289.932 41.9829 286.977 40.9276 284.656 39.2393C282.334 37.3398 281.068 34.3851 280.646 30.1642C280.224 25.31 281.49 21.7222 284.234 19.6117C286.977 17.5012 290.776 16.2349 295.63 16.0239C364.432 11.1698 399.044 10.9587 468.057 14.9686C472.911 15.1797 476.71 16.446 479.454 18.5565C482.408 20.667 483.464 24.0437 483.253 28.8979C482.831 33.752 481.142 37.1288 478.187 38.6061C475.233 40.2945 471.223 40.9276 466.58 40.7166C412.762 37.7619 385.748 37.5509 331.72 39.8724C329.187 42.8271 327.499 45.7818 326.654 48.7365C325.81 51.6911 325.388 54.2237 325.599 56.5452C325.599 58.6557 326.443 60.3441 327.921 61.3994C329.398 62.4546 332.142 62.8767 336.363 62.6657C347.97 62.2436 359.156 61.8215 369.286 61.1883C379.628 60.7662 389.547 60.1331 399.466 59.2889C409.386 58.6557 419.516 57.8115 429.857 56.9674C440.199 56.1232 451.384 55.279 463.203 54.4348C465.736 54.4348 468.268 54.4348 470.801 54.4348C473.333 54.8569 475.444 55.49 477.554 56.5452C479.454 57.6005 481.142 59.0778 482.197 60.5552C483.253 62.2436 483.886 64.3541 483.675 66.8866C483.464 69.8413 482.197 72.796 480.298 75.3286C478.187 77.8612 475.022 79.3385 470.59 79.7606C458.349 80.8159 446.741 81.8711 435.978 82.5042C425.003 83.1374 414.24 83.9816 403.476 84.6147C403.476 89.891 403.476 92.4235 403.476 97.6998C434.289 97.9108 449.696 98.5439 480.509 100.654C484.941 100.865 488.529 102.132 491.272 104.242C493.805 106.353 495.071 109.73 494.649 114.584C494.227 119.438 492.539 122.815 489.795 124.292C486.84 125.98 483.253 126.613 478.821 126.191C404.109 120.915 366.332 121.126 291.62 127.036C287.188 127.458 283.601 126.824 280.646 125.136C277.691 123.448 276.003 120.282 275.581 115.428C275.159 110.574 276.214 106.986 278.746 104.875C281.279 102.765 284.867 101.499 289.299 101.077C320.112 98.5439 335.519 97.9108 366.332 97.2777C366.332 92.6346 366.332 90.5241 366.121 85.881C360 86.3031 353.88 86.7252 347.759 86.9363C341.639 86.9363 335.096 87.3584 328.554 87.7805L328.343 88.8357ZM462.359 208.5C458.56 208.289 455.816 206.601 453.917 203.646C452.017 200.692 449.696 197.104 447.163 192.883C437.877 197.737 426.903 201.747 414.029 204.913C401.155 208.289 386.17 209.978 369.075 210.189C356.201 210.4 345.016 209.978 335.73 208.711C326.443 207.445 318.846 205.335 312.725 202.591C306.605 199.847 302.173 196.26 299.007 191.828C295.841 187.395 294.153 182.541 293.52 176.843C293.098 171.145 294.153 165.868 296.475 161.014C298.796 156.16 303.228 151.939 309.137 148.351C315.047 144.764 322.856 141.598 332.564 139.487C342.272 137.166 354.091 135.9 367.809 135.689C386.381 135.266 402.421 137.377 415.928 141.387C429.435 145.397 440.621 150.462 449.485 156.371C452.44 152.572 455.183 149.407 457.294 147.085C459.404 144.553 462.57 143.497 466.58 143.708C470.379 143.919 473.755 145.186 476.71 147.507C479.665 149.829 480.931 152.783 480.72 156.582C480.72 159.537 479.454 162.492 477.765 166.08C476.077 169.456 473.544 173.044 470.379 176.421C473.122 180.431 475.022 184.441 476.288 188.029C477.554 191.616 477.976 194.993 477.765 197.737C477.554 201.536 475.866 204.49 472.7 206.179C469.746 208.078 466.369 208.711 462.781 208.5H462.359ZM368.653 184.441C383.216 184.23 395.245 183.174 404.531 181.064C413.818 178.954 421.626 176.632 427.747 173.466C421.837 169.878 414.24 166.924 404.742 164.602C395.245 162.281 383.004 161.014 368.231 161.225C362.533 161.225 357.257 161.648 352.191 162.281C347.337 162.914 342.905 163.758 339.317 164.602C335.73 165.657 332.986 166.924 331.086 168.612C329.187 170.301 328.132 172.2 328.343 174.31C328.343 176.421 329.609 178.32 331.72 179.587C333.83 180.853 336.574 181.908 340.162 182.752C343.749 183.597 347.97 184.019 352.825 184.23C357.679 184.23 362.955 184.441 368.442 184.23L368.653 184.441Z" fill="#393939"/>
<path d="M593.414 201.533C607.976 204.065 622.539 205.754 637.101 206.809C651.663 207.864 666.437 208.708 681.843 209.553C684.165 209.553 686.486 209.975 688.597 210.819C690.707 211.663 692.607 212.718 694.295 213.985C695.984 215.251 697.039 216.939 697.672 218.839C698.305 220.738 698.305 222.849 697.672 225.381C696.828 228.336 695.35 230.869 693.029 232.979C690.707 235.09 687.542 235.934 683.321 235.934C650.186 234.878 616.207 231.502 580.962 225.592C573.575 224.326 566.611 222.849 560.279 221.16C553.948 219.472 548.461 217.15 543.817 214.196C539.174 211.241 535.587 207.653 533.054 203.01C530.521 198.367 529.466 192.88 529.888 186.337C530.31 178.951 531.788 172.197 534.32 165.866C536.853 159.745 540.23 153.836 544.451 148.137C546.772 144.972 549.727 142.861 552.893 141.806C556.058 140.751 559.435 140.329 562.601 140.751C567.033 141.384 570.832 143.072 574.208 146.027C577.585 148.982 578.852 152.569 578.218 156.579C577.796 158.479 577.163 160.378 576.108 161.856C575.053 163.333 573.786 165.021 572.309 166.71C570.832 168.609 569.565 170.72 568.299 173.252C567.033 175.785 566.189 179.162 565.556 183.172C564.711 188.448 566.611 192.458 570.832 194.99C575.053 197.523 582.65 199.633 593.625 201.533H593.414ZM722.787 108.46C731.018 110.571 735.239 111.837 743.47 113.948C747.902 115.214 751.278 117.113 753.6 119.646C755.921 122.178 756.344 125.977 754.866 130.62C753.6 135.263 751.278 138.218 747.902 139.062C744.736 140.118 740.937 139.907 736.505 138.64C728.485 136.319 724.264 135.263 716.244 133.153C711.601 150.67 709.491 159.323 704.848 176.84C703.792 180.85 701.471 183.594 698.094 185.282C694.506 186.97 689.863 187.181 684.165 185.704C678.467 184.227 674.246 182.116 671.924 178.951C669.603 175.785 668.969 172.197 669.814 168.398C680.155 123.234 685.431 100.651 695.773 55.276C696.617 51.2661 698.938 48.5224 702.737 46.834C706.536 45.1456 711.601 44.9346 718.144 46.623C724.686 48.1003 729.118 50.6329 731.651 54.0097C734.183 57.3865 735.028 60.9743 733.972 64.7732C729.329 82.2902 727.219 90.9432 722.576 108.46H722.787ZM527.567 110.571C524.612 98.3299 532.632 90.5211 541.707 89.0438C567.455 85.2449 588.349 73.4262 597.213 42.191C598.057 38.8142 598.69 37.1258 599.534 33.749C601.223 27.8396 610.72 23.4076 622.961 26.9955C634.357 30.3722 643.221 38.8142 640.9 45.9898C639.634 49.7887 639.212 51.4771 637.945 55.276C626.549 91.1543 594.469 118.38 550.571 123.867C542.34 124.711 529.888 120.068 527.567 110.36V110.571ZM650.186 105.928C657.151 115.425 649.764 126.399 641.955 129.776C633.724 133.364 621.905 129.354 617.262 123.023C610.509 114.159 607.132 109.727 600.167 100.863C594.891 93.4758 598.268 82.0792 606.921 77.6472C615.574 73.2151 628.237 76.803 633.513 84.1897C640.267 92.8427 643.432 97.2747 649.975 105.928H650.186Z" fill="#393939"/>
<path d="M143.665 29.7627C148.474 29.012 153.062 29.2083 157.236 30.6748L157.667 30.8311L157.724 30.8525L157.78 30.875C163.315 33.0891 166.175 38.2627 167.261 43.9736L167.338 43.9678C168.129 48.4524 167.727 52.6704 165.569 56.2666C164.424 58.1758 162.957 59.7948 161.239 61.1475C163.129 71.698 164.602 79.9929 166.07 88.2842C167.706 97.5171 169.341 106.746 171.556 119.085L171.566 119.144L171.575 119.201C172.428 124.602 171.296 129.906 167.552 134.274C165.779 136.343 163.556 137.991 160.98 139.301C170.338 139.103 178.573 140.941 185.385 145.028C195.228 150.934 200.761 160.366 203.012 172.014L203.219 173.148L203.23 173.213L203.24 173.278C204.319 180.521 203.794 187.424 201.684 193.981C206.093 192.85 210.112 191.39 213.765 189.563L213.832 189.529L213.9 189.498C219.526 186.873 223.733 183.555 227 179.743L227.019 179.722L227.038 179.7C228.513 178.015 230.52 175.879 233.14 174.5C235.642 172.99 238.508 172.192 241.364 171.915C247.046 171.16 252.251 172.12 256.356 175.883C259.93 179.159 261.993 183.367 262.565 188.209C263.385 195.036 261.437 201.437 257.067 206.627C253.192 211.229 248.188 215.247 242.142 218.503C236.347 221.623 230.072 224.316 223.108 226.338C216.419 228.28 210.129 229.799 204.454 230.891L204.393 230.902L204.331 230.913C190.691 233.221 177.66 233.518 165.07 232.39C153.66 238.354 141.444 242.903 128.064 246.039L128.055 246.042L128.046 246.044C122.328 247.364 115.955 248.461 108.721 249.119L108.72 249.118C101.643 249.781 94.7356 249.786 88.2197 249.112C81.4144 248.408 75.3069 246.528 69.917 243.95C63.3952 240.831 59.5198 235.402 57.6729 229.079C56.2775 224.334 56.4711 219.472 58.6699 215.074C61.0214 210.371 65.5123 207.169 71.2246 205.803C74.0506 205.05 77.0303 204.749 79.707 205.046C82.377 205.343 85.0352 206.224 87.6094 207.879C91.8314 210.134 97.0828 211.611 103.276 211.986C107.324 212.232 111.677 212.002 116.236 211.331C115.307 210.253 114.422 209.138 113.59 207.986C110.343 203.491 108.187 198.367 106.787 192.769L106.62 192.1V191.411C103.786 178.983 105.622 167.886 112.654 158.845C118.434 151.414 127.413 146.091 138.876 142.822C136.748 142.424 134.734 141.737 132.873 140.711C126.2 143.975 119.444 146.749 112.908 149.177L112.884 149.186L112.86 149.194C104.985 152.038 96.3182 154.415 86.75 156.754L86.749 156.753C78.0947 158.915 70.1823 160.091 63.3604 159.867C56.4958 159.852 50.4287 158.421 45.2334 155.947C40.0435 153.476 36.0059 150.208 32.7412 146.19L32.6885 146.127L32.6387 146.062C29.4391 141.877 27.2617 137.254 25.8291 132.288L25.4531 131.038C23.615 124.724 22.4137 117.51 22.2021 110.104V110.101C22.0543 104.78 22.394 99.6396 23.2148 94.5664C21.1199 94.5059 19.0976 94.1656 17.168 93.5225V93.5205C11.4674 91.6968 8.15173 87.0412 6.56934 81.2393C5.06782 75.7337 5.13016 69.5762 9.32129 65.0039C12.5147 61.5202 17.1169 58.951 22.5303 57.4746C70.1615 44.3498 94.1696 38.8267 142.658 29.9336L142.667 29.9316L143.665 29.7627ZM157.68 177.529C156.937 177.141 155.919 176.923 154.341 177.261C152.274 177.704 151.419 178.413 151.004 179.005C150.867 179.201 150.324 180.222 151.039 183.44L151.566 185.814C152.186 187.385 153.005 188.694 154.054 189.857C154.991 190.783 155.997 191.605 157.1 192.313C157.838 191.261 158.45 190.128 158.938 188.906C159.735 186.914 159.953 184.849 159.476 181.896C158.816 178.824 158.078 177.872 157.68 177.529ZM198.458 15.3252C205.359 14.4347 211.981 14.6645 217.212 17.7412C222.091 20.6112 225.386 24.996 226.049 30.9395H226.05C226.894 37.5894 227.528 42.6037 228.161 47.6162C228.605 51.1335 229.05 54.6501 229.567 58.7314C231.305 58.5266 232.916 58.3423 234.521 58.1582C237.738 57.789 240.932 57.4222 245.122 56.8984L245.216 56.8867L245.31 56.8789C250.467 56.41 255.488 56.7888 259.989 59.165C265.669 61.9238 267.793 67.7353 268.283 73.3701C268.781 79.0986 267.668 85.0591 262.74 88.8496C259.004 91.7239 254.612 93.2477 249.317 93.9697L249.218 93.9834L249.118 93.9932C242.796 94.6254 239.06 95.1287 233.901 95.8008C234.991 104.765 235.768 111.009 236.985 119.957L237.649 124.794L237.662 124.885L237.671 124.976C238.251 130.49 236.741 135.406 233.188 139.551L233.115 139.635L233.039 139.717C229.02 144.045 223.288 146.019 216.852 146.938C210.24 147.883 204.215 147.305 199.383 144.587L199.27 144.522L199.16 144.454C194.348 141.446 191.561 137.044 190.686 131.503C187.729 112.815 185.566 98.8251 183.402 84.8428C181.239 70.8614 179.077 56.8873 176.124 38.2197L176.123 38.2178C175.224 32.5264 176.788 27.1139 181.073 22.8291C185.178 18.7248 191.137 16.2698 198.458 15.3252ZM112.732 73.0742C97.4879 76.2153 88.1252 78.4363 72.3789 82.3213C71.0908 87.0574 70.2829 91.705 70.126 96.4131L70.123 96.5068L70.1172 96.5996C69.7241 102.496 70.1388 107.329 71.1982 111.214C72.108 114.55 73.5499 116.518 75.4277 117.752L75.8086 117.989L75.9121 118.05L76.0117 118.114C77.6737 119.19 80.8548 119.776 86.6797 118.417L87.3076 118.271H87.4844C93.9544 116.671 100.034 114.698 105.531 112.538C110.038 110.767 114.718 108.589 119.589 106.095C118.218 99.538 117.118 94.2264 116.021 88.9189C114.999 83.97 113.975 79.0252 112.732 73.0742Z" fill="#393939" stroke="#F7F3F2" stroke-width="11.2067"/>
<path d="M367.723 130.086C386.767 129.657 403.385 131.818 417.522 136.016C429.37 139.533 439.631 143.88 448.239 148.976C450.052 146.788 451.712 144.896 453.11 143.357C456.693 139.164 461.78 137.844 466.874 138.112L466.883 138.113H466.891C471.821 138.387 476.302 140.061 480.172 143.102C484.595 146.577 486.581 151.272 486.321 156.731C486.28 161.075 484.425 165.086 482.835 168.466L482.807 168.525L482.777 168.586C481.382 171.377 479.529 174.215 477.327 176.957C479.164 180.147 480.552 183.272 481.572 186.164C483.048 190.345 483.616 194.459 483.359 198.047C483.06 203.43 480.546 208.241 475.554 211.002C471.482 213.56 467.003 214.325 462.673 214.104H462.203L462.048 214.095C456.441 213.783 452.066 211.13 449.203 206.677C447.995 204.797 446.591 202.622 445.06 200.172C436.404 204.218 426.564 207.594 415.449 210.332L415.45 210.333C402.009 213.859 386.544 215.577 369.145 215.792L369.144 215.791C356.137 216.004 344.646 215.583 334.973 214.264C325.583 212.983 317.654 210.85 311.066 207.983L310.434 207.704C303.529 204.609 298.265 200.428 294.447 195.084C290.646 189.762 288.674 183.965 287.951 177.462L287.939 177.359L287.932 177.257C287.436 170.571 288.683 164.32 291.42 158.597C294.382 152.404 299.797 147.467 306.229 143.562C312.746 139.605 321.152 136.234 331.373 134.012C340.937 131.736 352.266 130.465 365.121 130.139L367.723 130.086ZM403.412 170.045C394.498 167.866 382.753 166.622 368.312 166.828L368.271 166.829H368.231C362.817 166.829 357.78 167.229 352.893 167.84C348.308 168.439 344.128 169.233 340.752 170.021C337.567 170.971 335.787 171.931 334.81 172.8C334.234 173.312 334.008 173.663 333.935 173.809C333.931 173.816 333.928 173.822 333.925 173.828L333.946 174.031V174.223C334 174.305 334.177 174.527 334.603 174.782L334.886 174.946C336.342 175.77 338.424 176.587 341.445 177.298C344.509 178.019 348.294 178.419 352.964 178.626C358.081 178.63 362.911 178.835 368.227 178.631L370.673 178.536L370.931 178.794C384.24 178.509 395.038 177.475 403.29 175.6C406.976 174.762 410.349 173.903 413.422 172.995C410.41 171.93 407.082 170.942 403.412 170.045ZM331.202 56.5449C331.202 56.6626 331.213 56.75 331.223 56.8115C331.363 56.8526 331.595 56.9134 331.949 56.9668C332.846 57.1022 334.183 57.1643 336.083 57.0693L336.121 57.0674L336.159 57.0664C347.777 56.6439 358.891 56.2236 368.937 55.5957L368.997 55.5918L369.058 55.5898C379.315 55.1712 389.152 54.5434 398.991 53.7061L399.05 53.7012L399.109 53.6973C408.968 53.068 419.041 52.2286 429.401 51.3828C439.766 50.5367 450.972 49.6909 462.804 48.8457L463.003 48.8311H471.265L471.722 48.9072C474.508 49.3717 477.024 50.0866 479.554 51.2871L480.061 51.5332L480.169 51.5879L480.275 51.6475C482.8 53.05 485.155 55.0551 486.757 57.2979L486.857 57.4385L486.949 57.585C488.605 60.2341 489.562 63.5194 489.263 67.2852L489.264 67.2861C488.96 71.5315 487.181 75.4898 484.78 78.6904L484.694 78.8057L484.603 78.916C481.28 82.9031 476.551 84.8217 471.121 85.3389L471.096 85.3408L471.071 85.3438C458.877 86.395 447.167 87.4588 436.307 88.0977L436.301 88.0986C430.847 88.4133 425.44 88.7799 420.029 89.1494C416.382 89.3985 412.732 89.6476 409.079 89.8818V92.1406C436.416 92.3925 451.869 93.0767 480.853 95.0615C486.189 95.3284 490.904 96.8898 494.688 99.8008L494.775 99.8672L494.859 99.9375C499.214 103.566 500.759 108.999 500.231 115.069C499.746 120.653 497.674 126.336 492.574 129.155L492.575 129.157C488.399 131.544 483.625 132.255 478.426 131.78C403.997 126.524 366.499 126.733 292.062 132.621L292.062 132.62C286.844 133.104 282.055 132.394 277.866 130.001C272.738 127.071 270.511 121.817 269.998 115.913C269.501 110.196 270.61 104.362 275.159 100.57C278.839 97.5037 283.64 95.9863 288.768 95.498L288.84 95.4922C297.522 94.7785 304.991 94.2173 311.926 93.7617C306.183 92.886 301.118 91.2852 296.746 88.9004L296.656 88.8516L296.568 88.7998C288.498 84.0082 283.54 77.0743 282.468 67.9639L282.462 67.915L282.457 67.8662C281.999 63.2858 281.974 58.4756 282.96 53.5469C283.473 50.9793 284.299 48.4664 285.378 46.0107C283.929 45.4179 282.593 44.667 281.36 43.7705L281.231 43.6768L281.107 43.5762C277.189 40.37 275.571 35.7254 275.07 30.7217L275.066 30.6855L275.063 30.6494C274.542 24.6529 276.039 18.8458 280.817 15.1699C284.69 12.1914 289.667 10.6885 295.302 10.4307C364.273 5.56604 399.124 5.3535 468.3 9.37109C473.951 9.6168 478.946 11.1124 482.832 14.0869C487.927 17.8024 489.096 23.5004 488.851 29.1416L488.846 29.2627L488.835 29.3828C488.348 34.9818 486.256 40.7313 480.868 43.5254C476.631 45.911 471.447 46.5473 466.325 46.3145L466.299 46.3125L466.272 46.3115C413.492 43.4138 386.668 43.1654 334.525 45.3623C333.258 47.1395 332.47 48.7787 332.042 50.2754C331.274 52.962 331.06 54.7217 331.18 56.0381L331.202 56.291V56.5449Z" fill="#393939" stroke="#F7F3F2" stroke-width="11.2067"/>
<path d="M551.121 136.49C554.72 135.291 558.672 134.718 562.563 135.106L563.342 135.196L563.367 135.2L563.394 135.204C568.854 135.984 573.671 138.111 577.898 141.81C582.662 145.978 584.699 151.463 583.753 157.453L583.727 157.625L583.688 157.795C583.205 159.971 582.369 162.731 580.668 165.112C579.59 166.622 578.251 168.409 576.668 170.233C575.506 171.742 574.444 173.49 573.311 175.758C572.435 177.509 571.697 180.204 571.09 184.046L571.089 184.057C570.808 185.815 571.033 186.993 571.397 187.796C571.757 188.588 572.429 189.414 573.715 190.186C576.94 192.12 583.577 194.107 594.581 196.012L594.577 196.047C608.865 198.524 623.172 200.182 637.506 201.221C651.979 202.269 666.673 203.109 682.034 203.951C684.958 203.974 687.922 204.514 690.678 205.616C693.21 206.629 695.546 207.919 697.657 209.502C700.431 211.582 702.07 214.312 702.988 217.066C704.047 220.241 703.923 223.483 703.108 226.74L703.085 226.831L703.06 226.921C701.955 230.785 699.959 234.251 696.798 237.125C693.011 240.567 688.21 241.537 683.32 241.537H683.231L683.143 241.534C649.747 240.471 615.518 237.067 580.035 231.118L580.025 231.117L580.016 231.115C572.498 229.826 565.363 228.315 558.836 226.574C552.053 224.766 546.018 222.237 540.81 218.923C535.497 215.542 531.189 211.294 528.135 205.693C524.997 199.941 523.827 193.363 524.295 186.018C524.749 178.065 526.347 170.713 529.118 163.784L529.13 163.754L529.143 163.723C531.862 157.15 535.474 150.843 539.948 144.802C542.918 140.761 546.806 137.929 551.121 136.49ZM700.461 41.7139C705.806 39.3383 712.25 39.3271 719.467 41.1777C726.676 42.8193 732.517 45.8248 736.134 50.6475C739.538 55.186 740.946 60.5188 739.388 66.208L739.389 66.209C737.072 74.9481 735.388 81.4753 733.7 88.0166C732.383 93.1223 731.061 98.2365 729.439 104.407C731.266 104.893 732.935 105.346 734.595 105.796C736.928 106.429 739.244 107.057 741.976 107.772L744.861 108.52L744.936 108.539L745.009 108.56C750.106 110.016 754.509 112.346 757.73 115.859C761.927 120.437 761.996 126.601 760.24 132.204C758.728 137.662 755.5 142.818 749.503 144.432C744.891 145.917 739.898 145.437 734.966 144.028L734.956 144.025L734.947 144.022C728.99 142.298 725.175 141.286 720.235 139.992C718.613 146.164 717.293 151.276 715.972 156.396C714.284 162.937 712.591 169.492 710.266 178.265L710.267 178.266C708.803 183.829 705.423 187.883 700.6 190.294L700.54 190.323L700.48 190.352C695.319 192.78 689.233 192.806 682.759 191.128C676.704 189.558 670.899 187.028 667.405 182.264V182.265C664.055 177.697 663.177 172.432 664.344 167.183L664.352 167.147C674.7 121.954 679.967 99.4122 690.31 54.0312C691.564 48.205 695.146 44.0763 700.461 41.7139ZM605.488 21.5049C610.672 19.744 617.052 19.5562 623.875 21.4307L624.537 21.6182L624.545 21.6211L624.553 21.623C631.008 23.5357 636.957 26.929 641.083 31.1523C645.067 35.2302 648.328 41.2354 646.231 47.7148L646.216 47.7617C645.605 49.5954 645.199 50.9151 644.778 52.2812C644.355 53.6586 643.916 55.0828 643.261 57.0479C641.034 64.0378 638.07 70.7067 634.432 76.9736C635.756 78.1147 636.953 79.3922 637.977 80.8018C644.119 88.6732 647.374 93.1545 652.769 100.324H653.025L654.705 102.614C659.565 109.241 659.364 116.553 656.724 122.44C654.194 128.081 649.361 132.673 644.193 134.912C638.535 137.378 632.102 137.093 626.679 135.494C621.314 133.913 616.045 130.785 612.806 126.418V126.419C608.15 120.308 605.108 116.317 601.392 111.53C587.188 120.774 570.244 127.054 551.266 129.427L551.204 129.435L551.143 129.441C545.872 129.982 539.622 128.783 534.3 126.059C529.024 123.358 523.894 118.729 522.173 111.879L522.12 111.886C520.277 104.251 521.803 97.4925 525.654 92.3936C529.406 87.4267 535.043 84.452 540.807 83.5137L540.889 83.5C553.183 81.6861 563.833 78.0248 572.379 71.4619C580.839 64.9651 587.656 55.3036 591.807 40.7129C592.245 38.9693 592.632 37.6443 592.994 36.4014C593.362 35.14 593.705 33.9636 594.099 32.3896L594.121 32.2998L594.146 32.21C595.658 26.9181 600.281 23.274 605.488 21.5049Z" fill="#393939" stroke="#F7F3F2" stroke-width="11.2067"/>
</svg>
